ply
format ascii 1.0
comment mesh2rdm output
element vertex 28
property float x
property float y
property float z
element face 12
property list uchar int vertex_indices
end_header
1.000000 1.000000 -1.000000
1.000000 -1.000000 -1.000000
-1.000000 -1.000000 -1.000000
-1.000000 1.000000 -1.000000
-1.000000 -1.000000 1.000000
-1.000000 1.000000 1.000000
-1.000000 1.000000 -1.000000
-1.000000 -1.000000 -1.000000
1.000000 -1.000000 1.000000
0.999999 1.000000 1.000001
-1.000000 -1.000000 1.000000
0.999999 1.000000 1.000001
-1.000000 1.000000 1.000000
-1.000000 -1.000000 1.000000
1.000000 -1.000000 -1.000000
1.000000 1.000000 -1.000000
1.000000 -1.000000 1.000000
1.000000 1.000000 -1.000000
0.999999 1.000000 1.000001
1.000000 -1.000000 1.000000
1.000000 1.000000 -1.000000
-1.000000 1.000000 -1.000000
0.999999 1.000000 1.000001
-1.000000 1.000000 1.000000
1.000000 -1.000000 -1.000000
1.000000 -1.000000 1.000000
-1.000000 -1.000000 1.000000
-1.000000 -1.000000 -1.000000
3 0 1 2
3 0 2 3
3 4 5 6
3 4 6 7
3 8 9 10
3 11 12 13
3 14 15 16
3 17 18 19
3 20 21 22
3 21 23 22
3 24 25 26
3 24 26 27
